<?xml version="1.0" ?><svg id="Layer_1" style="enable-background:new 0 0 74 74;" version="1.1" viewBox="0 0 74 74" xml:space="preserve" xmlns="http://www.w3.org/2000/svg" xmlns:xlink="http://www.w3.org/1999/xlink"><style type="text/css">
	.st0{fill:#2B3033;}
</style><g><path class="st0" d="M63.3,3H10.7C6.5,3,3,6.5,3,10.7v52.5c0,4.3,3.5,7.7,7.7,7.7h52.5c4.3,0,7.7-3.5,7.7-7.7V10.7   C71,6.5,67.5,3,63.3,3z M67,63.3c0,2.1-1.7,3.7-3.7,3.7H10.7C8.7,67,7,65.3,7,63.3V30.1h54.1c1.1,0,2-0.9,2-2s-0.9-2-2-2H7V10.7   C7,8.7,8.7,7,10.7,7h52.5c2.1,0,3.7,1.7,3.7,3.7V63.3z"/><path class="st0" d="M20.3,10.3c-3.4,0-6.2,2.8-6.2,6.2c0,3.4,2.8,6.2,6.2,6.2s6.2-2.8,6.2-6.2C26.5,13.1,23.7,10.3,20.3,10.3z    M20.3,18.7c-1.2,0-2.2-1-2.2-2.2s1-2.2,2.2-2.2s2.2,1,2.2,2.2S21.5,18.7,20.3,18.7z"/><path class="st0" d="M53.7,10.3c-3.4,0-6.2,2.8-6.2,6.2c0,3.4,2.8,6.2,6.2,6.2c3.4,0,6.2-2.8,6.2-6.2   C59.9,13.1,57.1,10.3,53.7,10.3z M53.7,18.7c-1.2,0-2.2-1-2.2-2.2s1-2.2,2.2-2.2s2.2,1,2.2,2.2S54.9,18.7,53.7,18.7z"/><path class="st0" d="M33.3,54.6h-3.1v-16c0-0.8-0.5-1.5-1.2-1.8c-0.8-0.3-1.6-0.1-2.2,0.4l-6.1,6.1c-0.8,0.8-0.8,2,0,2.8   s2,0.8,2.8,0l2.7-2.7v11.2h-3.1c-1.1,0-2,0.9-2,2s0.9,2,2,2h10.3c1.1,0,2-0.9,2-2S34.4,54.6,33.3,54.6z"/><path class="st0" d="M51.9,54.6h-3.1v-16c0-0.8-0.5-1.5-1.2-1.8c-0.7-0.3-1.6-0.1-2.2,0.4l-6.1,6.1c-0.8,0.8-0.8,2,0,2.8   s2,0.8,2.8,0l2.7-2.7v11.2h-3.1c-1.1,0-2,0.9-2,2s0.9,2,2,2h10.3c1.1,0,2-0.9,2-2S53,54.6,51.9,54.6z"/></g></svg>